<svg id="logosandtypes_com" data-name="logosandtypes com" xmlns="http://www.w3.org/2000/svg" xmlns:xlink="http://www.w3.org/1999/xlink" viewBox="0 0 150 150"><defs><style>.cls-1{fill:none;}.cls-2{fill:url(#linear-gradient);}</style><linearGradient id="linear-gradient" x1="42.01" y1="16.39" x2="110.4" y2="134.52" gradientUnits="userSpaceOnUse"><stop offset="0.11" stop-color="#4831d4"/><stop offset="0.58" stop-color="#4831d4"/><stop offset="0.94" stop-color="#4831d4"/></linearGradient></defs><path class="cls-1" d="M0,.2H150v150H0Z" transform="translate(0 -0.2)"/><path class="cls-2" d="M111.37,136.28H85.79L76,119.59l-9.63,16.66H40.51L5.15,75,40.46,13.87h26L76,30.37,85.6,13.86h25.83l35.33,61Zm-75.55-64h102.9L108.21,19.42h-16L114.4,58,60.15,58l11-19.16H55.12Zm78.73,19.55-22.5,39h16.12l30.49-52.81H35.88l19.19,33.24H71.13L60.06,91.79ZM50.3,114l-22.51-39L50.3,36l-8.06-14.1L11.58,75,42.2,128.08ZM88.81,52.63H104.9L87.29,22.05,79.24,36ZM87.26,128l17.6-30.5H88.65L79.22,114Zm-24.1,2.77,8-13.9h-16l-8,13.9ZM55,33.05l16-.15L63.26,19.5l-15.9.16Zm21.18,8.84-.34,0L69.64,52.65H82.39Zm5.9,55.86L82,97.4l-12.24.16L76,108.41Z" transform="translate(0 -0.2)"/></svg> 