<svg id="logosandtypes_com" xmlns="http://www.w3.org/2000/svg" viewBox="0 0 150 150.2">
  <defs>
    <linearGradient id="grad1" x1="0%" y1="0%" x2="100%" y2="0%">
      <stop offset="0%" style="stop-color:#4831D4" />
      <stop offset="100%" style="stop-color:black" />
    </linearGradient>
  </defs>
  <path d="M0 .2h150v150H0V.2z" fill="none"/>
  <path d="M56.433 106.331c1.9-4.7 14.6-36.8 14.6-36.8l-8.4 3.2 13.7-20.9 35-11.6-9.4 11.3 11.7-4.1-57.2 58.9" fill="url(#grad1)"/>
  <path d="M77.558 53.345l26-8.6-9.4 11.4 10.2-3.5-41.6 42.9 11.9-29.9-6.7 2.6 9.6-14.9" fill="url(#grad1)"/>
  <path d="M97.3 67.6121l-21.3 21.8h19.8v16.8c-4.5 1.9-7.5 2.6-12.2 2.6-7.7 0-14.6-2.4-20-6.6l-12.7 12.6 7-18.2c-4.3-5.9-7.1-14.2-7.1-22.6 0-18.5 12.6-32.1 29.9-32.1 4.3 0 8.2.6 12.1 2.1l24.5-8-8.6 10.8 13.1-4.7-8.6 8.8-1.1 1.1h11.7v-39.2h-18.5v5.8c-7.4-2.8-15.5-4.2-24.5-4.2-36.9 0-63.4 25.7-63.4 61.7 0 34.9 25.5 59.2 62.2 59.2 17.3 0 32.8-4.7 46.3-14v-53.6H97.3z" fill="url(#grad1)"/>
  <path d="M65.426 88.632l33-34-9.3 3.2 9.4-11.4-21 7-7.1 10.8 5.5-2.1-10.5 26.5z" fill="url(#grad1)"/>
</svg>
